<?xml version="1.0" encoding="iso-8859-1"?>
<!-- Generator: Adobe Illustrator 22.1.0, SVG Export Plug-In . SVG Version: 6.00 Build 0)  -->
<svg version="1.1" id="Layer_1" xmlns="http://www.w3.org/2000/svg" xmlns:xlink="http://www.w3.org/1999/xlink" x="0px" y="0px"
	 width="500px" height="500px" viewBox="0 0 500 500" enable-background="new 0 0 500 500" xml:space="preserve">
<path d="M448.129,203.041c-17.296-17.326-41.517-26.484-70.044-26.484c-25.098,0-56.32,14.422-92.801,42.865
	c-22.081,17.216-39.49,34.628-45.155,40.459c-6.445-5.974-23.252-21.04-44.29-35.936c-36.455-25.811-67.636-38.899-92.676-38.899
	c-28.959,0-53.123,7.765-69.88,22.457c-16.23,14.23-24.809,34.103-24.809,57.471c0,23.539,8.752,45.271,24.646,61.191
	c17.296,17.326,41.516,26.484,70.043,26.484c25.098,0,56.32-14.422,92.801-42.865c22.081-17.216,39.489-34.628,45.155-40.459
	c6.445,5.974,23.252,21.04,44.29,35.936c36.455,25.811,67.636,38.899,92.676,38.899c28.959,0,53.124-7.765,69.881-22.457
	c16.23-14.23,24.809-34.103,24.809-57.471C472.775,240.693,464.022,218.961,448.129,203.041z M103.163,345.912
	c-26.698,0-49.27-8.474-65.274-24.506c-14.623-14.648-22.676-34.689-22.676-56.431c0-21.37,7.785-39.492,22.513-52.404
	c15.51-13.598,38.138-20.785,65.438-20.785c50.954,0,119.005,60.632,132.67,73.306C222.438,278.789,154.175,345.912,103.163,345.912
	z M443.524,316.637c-15.51,13.598-38.138,20.785-65.438,20.785c-50.954,0-119.005-60.632-132.67-73.306
	c13.395-13.698,81.659-80.821,132.67-80.821c26.699,0,49.271,8.474,65.275,24.506c14.623,14.648,22.676,34.69,22.676,56.431
	C466.037,285.603,458.252,303.724,443.524,316.637z"/>
</svg>
